<svg xmlns="http://www.w3.org/2000/svg" viewBox="0 0 150 170" role="img" aria-label="Hand-drawn coffee cup doodle">
  <g fill="none" stroke="#5f86a6" stroke-width="4" stroke-linecap="round" stroke-linejoin="round">
    <path d="M43 54c18-8 48-9 67-1 3 7 2 17-2 23-17 8-48 9-66 0-5-7-5-16 1-22z"/>
    <path d="M49 56c16 5 38 4 55-1"/>
    <path d="M47 74c15 8 40 8 58 0"/>
    <path d="M39 77c3 27 8 56 16 76 13 5 38 5 53-1 7-21 11-49 13-76"/>
    <path d="M51 104c18 5 42 5 58-1"/>
    <path d="M55 123c15 4 35 4 51-1"/>
    <path d="M119 91c13-1 21 4 22 15 1 12-8 21-23 20"/>
    <path d="M119 101c7 0 12 2 12 8 1 6-4 10-13 10"/>
    <path d="M46 154c-11 1-22 5-28 11 23 4 71 4 100-1 7-1 15-3 18-7-8-4-19-5-29-4"/>
    <path d="M53 32c-5-6-5-13 0-19"/>
    <path d="M76 31c-5-7-5-15 0-22"/>
    <path d="M100 35c-4-5-3-12 2-18"/>
  </g>
  <g fill="#5f86a6" opacity=".22">
    <circle cx="31" cy="55" r="3"/>
    <circle cx="124" cy="42" r="3"/>
    <circle cx="26" cy="139" r="4"/>
  </g>
</svg>
