<svg xmlns="http://www.w3.org/2000/svg" viewBox="0 0 190 150" role="img" aria-label="Hand-drawn field notes doodle">
  <g fill="none" stroke="#5f86a6" stroke-width="4" stroke-linecap="round" stroke-linejoin="round">
    <path d="M54 23c25-5 55-1 79 9 4 27 0 59-12 87-23 5-53 2-78-7 8-29 11-59 11-89z"/>
    <path d="M63 32c23 0 43 3 61 10"/>
    <path d="M43 112c24 10 53 14 83 9"/>
    <path d="M132 32c-3 28-7 56-13 87"/>
    <path d="M67 55c12-3 25-1 36 4"/>
    <path d="M64 72c12 0 25 3 36 8"/>
    <path d="M62 91c10 3 22 5 34 6"/>
    <path d="M112 67c12-4 25-2 35 5"/>
    <path d="M116 83c9 1 17 4 26 9"/>
    <path d="M78 21c2-7 8-12 17-13"/>
    <path d="M97 8c5 1 9 4 11 9"/>
    <path d="M37 42c-10 5-17 13-21 25"/>
    <path d="M27 75c7 4 17 5 28 1"/>
  </g>
  <g fill="none" stroke="#5f86a6" stroke-width="3" stroke-linecap="round" stroke-linejoin="round" opacity=".9">
    <path d="M125 20l22-12 7 11-21 12z"/>
    <path d="M146 9l9-5"/>
    <path d="M132 31l-5 10"/>
    <path d="M72 58c5 9 9 16 13 23"/>
    <path d="M84 81c8-12 16-22 28-32"/>
  </g>
  <g fill="#5f86a6" opacity=".28">
    <circle cx="35" cy="34" r="4"/>
    <circle cx="152" cy="52" r="3"/>
    <circle cx="31" cy="93" r="3"/>
  </g>
</svg>
