<svg xmlns="http://www.w3.org/2000/svg" viewBox="0 0 190 150" role="img" aria-label="Hand-drawn neural network doodle">
  <g fill="none" stroke="#6f93ad" stroke-width="3.5" stroke-linecap="round" stroke-linejoin="round">
    <path d="M35 37c28 16 55 21 88 15"/>
    <path d="M58 104c24-22 46-34 78-48"/>
    <path d="M38 38c6 35 13 52 20 66"/>
    <path d="M124 52c15 18 24 35 31 60"/>
    <path d="M58 104c29 17 59 20 97 8"/>
    <path d="M35 37c36 26 75 51 120 75"/>
  </g>
  <g fill="#fbfaf7" stroke="#1f2423" stroke-width="4">
    <circle cx="35" cy="37" r="13"/>
    <circle cx="124" cy="52" r="11"/>
    <circle cx="58" cy="104" r="12"/>
    <circle cx="155" cy="112" r="13"/>
  </g>
  <g fill="#7aa384">
    <circle cx="35" cy="37" r="4"/>
    <circle cx="124" cy="52" r="4"/>
    <circle cx="58" cy="104" r="4"/>
    <circle cx="155" cy="112" r="4"/>
  </g>
</svg>
