<svg xmlns="http://www.w3.org/2000/svg" viewBox="0 0 190 150" role="img" aria-label="Hand-drawn speech and trust doodle">
  <g fill="none" stroke="#1f2423" stroke-width="4.2" stroke-linecap="round" stroke-linejoin="round">
    <path d="M28 40c12-18 48-26 80-19 34 7 53 29 45 52-8 22-42 34-78 29-11 9-25 15-42 17 6-8 9-16 9-24-21-12-26-36-14-55z"/>
    <path d="M68 61c8 8 15 16 22 26 13-20 25-34 42-50"/>
    <path d="M147 96c11 2 19 8 22 16 5 14-7 27-28 31-11 2-23 0-32-4-9 5-18 8-28 8 4-5 6-10 6-15-5-4-8-8-9-13"/>
  </g>
  <g fill="#f3c84b" opacity=".82">
    <circle cx="51" cy="31" r="4"/>
    <circle cx="156" cy="31" r="5"/>
    <circle cx="171" cy="84" r="3"/>
  </g>
</svg>
